<svg width="548" height="96" viewBox="0 0 548 96" fill="none" xmlns="http://www.w3.org/2000/svg">
<path d="M20.608 84.352C27.3493 87.7653 35.4987 86.1013 45.056 79.36V43.392C42.5813 41.9413 39.1253 40.96 34.688 40.448C31.1893 40.1067 27.776 41.8987 24.448 45.824C21.12 49.664 18.6027 54.144 16.896 59.264C15.1893 64.384 14.5493 69.4613 14.976 74.496C15.488 79.4453 17.3653 82.7307 20.608 84.352ZM45.056 0L61.056 3.584C61.568 61.184 61.568 90.24 61.056 90.752C60.6293 90.8373 58.4107 91.3067 54.4 92.16C50.4747 93.0987 47.9573 93.6533 46.848 93.824C45.7387 93.9947 43.4347 94.2507 39.936 94.592C36.5227 94.9333 33.792 94.9333 31.744 94.592C29.7813 94.2507 27.3067 93.6533 24.32 92.8C21.3333 92.032 18.4747 90.88 15.744 89.344C10.88 86.6987 7.12535 83.456 4.48001 79.616C1.83468 75.776 0.426678 71.8507 0.256012 67.84C0.0853453 63.8293 0.554679 59.776 1.66401 55.68C2.77334 51.4987 4.52268 47.7013 6.91201 44.288C9.38668 40.7893 11.9893 37.7173 14.72 35.072C17.536 32.4267 20.48 30.5493 23.552 29.44C26.624 28.2453 29.3547 28.032 31.744 28.8C32.8533 29.1413 34.0053 29.6533 35.2 30.336C36.48 30.9333 37.504 31.488 38.272 32C39.1253 32.512 40.2773 33.28 41.728 34.304C43.264 35.328 44.3733 36.0533 45.056 36.48V0ZM120.565 29.824L136.565 33.408V94.72L120.565 91.136V84.736C113.738 91.7333 107.424 95.0187 101.621 94.592C98.8903 94.4213 94.0263 91.264 87.029 85.12C80.0317 78.976 76.3197 74.7093 75.893 72.32C75.5517 70.1013 75.381 55.936 75.381 29.824L91.253 33.408C90.8263 62.7627 91.0397 78.336 91.893 80.128C93.5997 82.5173 96.1597 83.2853 99.573 82.432C103.072 81.5787 106.912 79.1467 111.093 75.136C115.36 71.1253 118.517 66.7307 120.565 61.952V29.824ZM168.682 3.584V52.352L192.874 29.568L207.594 33.152L184.17 55.168L211.178 88.832L202.218 94.72L177.258 61.696L168.682 69.76V94.592L152.682 91.008V0L168.682 3.584ZM230.561 45.952L223.649 34.304C229.622 32.768 236.236 31.3173 243.489 29.952C250.828 28.5867 255.436 27.9467 257.313 28.032C259.19 28.1173 262.945 30.9333 268.577 36.48C274.209 41.9413 278.006 46.1227 279.969 49.024C280.652 50.048 280.993 53.504 280.993 59.392C280.993 65.1947 280.865 71.8507 280.609 79.36C280.438 86.8693 280.396 91.9467 280.481 94.592L264.609 90.88L264.737 84.352C257.825 91.264 252.193 94.72 247.841 94.72C243.745 94.6347 238.54 90.752 232.225 83.072C225.91 75.392 222.753 69.888 222.753 66.56C222.753 63.9147 224.545 61.4827 228.129 59.264C231.713 57.0453 236.065 55.3387 241.185 54.144C246.39 52.864 250.998 51.8827 255.009 51.2C259.02 50.5173 262.433 50.048 265.249 49.792L265.377 46.336C265.462 42.24 263.286 40.0213 258.849 39.68C254.753 39.424 246.134 41.2587 232.993 45.184H232.865L232.737 45.312H232.609H232.481L232.353 45.44H232.225H232.097L231.969 45.568H231.841H231.713L231.585 45.696H231.457H231.329H231.201L231.073 45.824H230.945H230.817L230.689 45.952H230.561ZM236.961 78.08C237.729 79.2747 239.18 80.0427 241.313 80.384C243.446 80.7253 246.646 80.1707 250.913 78.72C255.265 77.184 259.958 74.5387 264.993 70.784L265.121 59.52C242.593 66.0907 233.206 72.2773 236.961 78.08ZM312.822 33.28V38.528C320.417 31.4453 327.073 28.0747 332.79 28.416C335.521 28.5867 340.299 32 347.126 38.656C354.038 45.2267 357.707 49.7067 358.134 52.096C358.475 54.3147 358.646 68.48 358.646 94.592L342.774 91.008C343.286 61.7387 343.073 46.2507 342.134 44.544C340.598 41.6427 338.038 40.7893 334.454 41.984C330.955 43.0933 327.286 45.1413 323.446 48.128C319.691 51.1147 316.15 54.6133 312.822 58.624V94.592L296.182 91.008V29.696L312.822 33.28ZM415.565 29.824L431.565 33.408V94.72L415.565 91.136V84.736C408.738 91.7333 402.424 95.0187 396.621 94.592C393.89 94.4213 389.026 91.264 382.029 85.12C375.032 78.976 371.32 74.7093 370.893 72.32C370.552 70.1013 370.381 55.936 370.381 29.824L386.253 33.408C385.826 62.7627 386.04 78.336 386.893 80.128C388.6 82.5173 391.16 83.2853 394.573 82.432C398.072 81.5787 401.912 79.1467 406.093 75.136C410.36 71.1253 413.517 66.7307 415.565 61.952V29.824ZM463.682 33.28V36.736C469.741 30.848 475.33 28.0747 480.45 28.416C482.071 28.5013 484.717 30.0373 488.386 33.024C492.055 35.9253 495.554 39.168 498.882 42.752C506.903 32.768 514.327 27.9893 521.154 28.416C523.885 28.5867 528.663 32 535.49 38.656C542.402 45.2267 546.071 49.7067 546.498 52.096C546.839 54.3147 547.01 68.48 547.01 94.592L531.138 91.008C531.65 61.6533 531.437 46.1227 530.498 44.416C529.474 42.5387 527.981 41.5573 526.018 41.472C524.141 41.3867 522.05 42.0267 519.746 43.392C517.527 44.7573 515.266 46.5067 512.962 48.64C510.658 50.688 508.354 53.0347 506.05 55.68C506.221 60.3733 506.306 73.344 506.306 94.592L490.434 91.008C490.946 61.6533 490.733 46.1227 489.794 44.416C488.514 42.5387 486.893 41.5573 484.93 41.472C483.053 41.3867 480.834 42.1973 478.274 43.904C475.714 45.5253 473.197 47.5307 470.722 49.92C468.333 52.224 465.986 54.8267 463.682 57.728V94.592L447.682 91.008V29.696L463.682 33.28Z" fill="black"/>
</svg>
