<svg width="664" height="664" viewBox="0 0 664 664" fill="none" xmlns="http://www.w3.org/2000/svg">
<rect width="664" height="664" rx="20" fill="#FFFF00"/>
<path d="M79.24 338.472C85.9813 341.885 94.1307 340.221 103.688 333.48V297.512C101.213 296.061 97.7573 295.08 93.32 294.568C89.8213 294.227 86.408 296.019 83.08 299.944C79.752 303.784 77.2347 308.264 75.528 313.384C73.8213 318.504 73.1813 323.581 73.608 328.616C74.12 333.565 75.9973 336.851 79.24 338.472ZM103.688 254.12L119.688 257.704C120.2 315.304 120.2 344.36 119.688 344.872C119.261 344.957 117.043 345.427 113.032 346.28C109.107 347.219 106.589 347.773 105.48 347.944C104.371 348.115 102.067 348.371 98.568 348.712C95.1547 349.053 92.424 349.053 90.376 348.712C88.4133 348.371 85.9387 347.773 82.952 346.92C79.9653 346.152 77.1067 345 74.376 343.464C69.512 340.819 65.7573 337.576 63.112 333.736C60.4667 329.896 59.0587 325.971 58.888 321.96C58.7173 317.949 59.1867 313.896 60.296 309.8C61.4053 305.619 63.1547 301.821 65.544 298.408C68.0187 294.909 70.6213 291.837 73.352 289.192C76.168 286.547 79.112 284.669 82.184 283.56C85.256 282.365 87.9867 282.152 90.376 282.92C91.4853 283.261 92.6373 283.773 93.832 284.456C95.112 285.053 96.136 285.608 96.904 286.12C97.7573 286.632 98.9093 287.4 100.36 288.424C101.896 289.448 103.005 290.173 103.688 290.6V254.12ZM179.197 283.944L195.197 287.528V348.84L179.197 345.256V338.856C172.37 345.853 166.056 349.139 160.253 348.712C157.522 348.541 152.658 345.384 145.661 339.24C138.664 333.096 134.952 328.829 134.525 326.44C134.184 324.221 134.013 310.056 134.013 283.944L149.885 287.528C149.458 316.883 149.672 332.456 150.525 334.248C152.232 336.637 154.792 337.405 158.205 336.552C161.704 335.699 165.544 333.267 169.725 329.256C173.992 325.245 177.149 320.851 179.197 316.072V283.944ZM227.314 257.704V306.472L251.506 283.688L266.226 287.272L242.802 309.288L269.81 342.952L260.85 348.84L235.89 315.816L227.314 323.88V348.712L211.314 345.128V254.12L227.314 257.704ZM289.193 300.072L282.281 288.424C288.254 286.888 294.868 285.437 302.121 284.072C309.46 282.707 314.068 282.067 315.945 282.152C317.822 282.237 321.577 285.053 327.209 290.6C332.841 296.061 336.638 300.243 338.601 303.144C339.284 304.168 339.625 307.624 339.625 313.512C339.625 319.315 339.497 325.971 339.241 333.48C339.07 340.989 339.028 346.067 339.113 348.712L323.241 345L323.369 338.472C316.457 345.384 310.825 348.84 306.473 348.84C302.377 348.755 297.172 344.872 290.857 337.192C284.542 329.512 281.385 324.008 281.385 320.68C281.385 318.035 283.177 315.603 286.761 313.384C290.345 311.165 294.697 309.459 299.817 308.264C305.022 306.984 309.63 306.003 313.641 305.32C317.652 304.637 321.065 304.168 323.881 303.912L324.009 300.456C324.094 296.36 321.918 294.141 317.481 293.8C313.385 293.544 304.766 295.379 291.625 299.304H291.497L291.369 299.432H291.241H291.113L290.985 299.56H290.857H290.729L290.601 299.688H290.473H290.345L290.217 299.816H290.089H289.961H289.833L289.705 299.944H289.577H289.449L289.321 300.072H289.193ZM295.593 332.2C296.361 333.395 297.812 334.163 299.945 334.504C302.078 334.845 305.278 334.291 309.545 332.84C313.897 331.304 318.59 328.659 323.625 324.904L323.753 313.64C301.225 320.211 291.838 326.397 295.593 332.2ZM371.454 287.4V292.648C379.049 285.565 385.705 282.195 391.422 282.536C394.153 282.707 398.931 286.12 405.758 292.776C412.67 299.347 416.339 303.827 416.766 306.216C417.107 308.435 417.278 322.6 417.278 348.712L401.406 345.128C401.918 315.859 401.705 300.371 400.766 298.664C399.23 295.763 396.67 294.909 393.086 296.104C389.587 297.213 385.918 299.261 382.078 302.248C378.323 305.235 374.782 308.733 371.454 312.744V348.712L354.814 345.128V283.816L371.454 287.4Z" fill="url(#paint0_linear_414_111)"/>
<path d="M474.197 283.944L490.197 287.528V348.84L474.197 345.256V338.856C467.37 345.853 461.056 349.139 455.253 348.712C452.522 348.541 447.658 345.384 440.661 339.24C433.664 333.096 429.952 328.829 429.525 326.44C429.184 324.221 429.013 310.056 429.013 283.944L444.885 287.528C444.458 316.883 444.672 332.456 445.525 334.248C447.232 336.637 449.792 337.405 453.205 336.552C456.704 335.699 460.544 333.267 464.725 329.256C468.992 325.245 472.149 320.851 474.197 316.072V283.944ZM522.314 287.4V290.856C528.373 284.968 533.962 282.195 539.082 282.536C540.703 282.621 543.349 284.157 547.018 287.144C550.687 290.045 554.186 293.288 557.514 296.872C565.535 286.888 572.959 282.109 579.786 282.536C582.517 282.707 587.295 286.12 594.122 292.776C601.034 299.347 604.703 303.827 605.13 306.216C605.471 308.435 605.642 322.6 605.642 348.712L589.77 345.128C590.282 315.773 590.069 300.243 589.13 298.536C588.106 296.659 586.613 295.677 584.65 295.592C582.773 295.507 580.682 296.147 578.378 297.512C576.159 298.877 573.898 300.627 571.594 302.76C569.29 304.808 566.986 307.155 564.682 309.8C564.853 314.493 564.938 327.464 564.938 348.712L549.066 345.128C549.578 315.773 549.365 300.243 548.426 298.536C547.146 296.659 545.525 295.677 543.562 295.592C541.685 295.507 539.466 296.317 536.906 298.024C534.346 299.645 531.829 301.651 529.354 304.04C526.965 306.344 524.618 308.947 522.314 311.848V348.712L506.314 345.128V283.816L522.314 287.4Z" fill="black"/>
<path d="M98.12 421.616L90.824 412.464C88.5627 414.043 85.9387 414.981 82.952 415.28C80.52 415.493 78.0667 414.576 75.592 412.528C73.7573 411.035 72.3707 409.904 71.432 409.136C70.4933 408.325 69.3627 407.259 68.04 405.936C66.76 404.571 65.6933 403.269 64.84 402.032C63.9867 400.837 63.6453 399.301 63.816 397.424C64.0293 395.504 64.4773 393.627 65.16 391.792C65.8427 389.957 66.7813 388.357 67.976 386.992C69.1707 385.627 70.3653 384.88 71.56 384.752L83.336 384.048V380.528H60.488V374.384H100.04V380.528H90.44V389.616H78.216C76.936 389.616 75.7627 390.256 74.696 391.536C73.672 392.816 72.9893 394.373 72.648 396.208C72.3067 398.043 72.2213 399.899 72.392 401.776C72.6053 403.653 73.3093 405.275 74.504 406.64C75.6987 408.005 77.2987 408.773 79.304 408.944C81.864 409.157 84.2107 408.432 86.344 406.768C84.552 404.421 83.7627 403.013 83.976 402.544C84.7867 400.923 86.28 399.451 88.456 398.128C89.1813 397.659 89.8853 397.403 90.568 397.36C91.2507 397.275 91.8907 397.381 92.488 397.68C93.0853 397.979 93.64 398.341 94.152 398.768C94.664 399.195 95.1973 399.749 95.752 400.432C96.7333 401.584 97.3307 402.757 97.544 403.952C97.8 405.104 97.5013 406.235 96.648 407.344L93.256 410.736L100.616 419.888L98.12 421.616ZM95.126 420.104C96.4487 420.147 98.262 421.085 100.566 422.92C102.87 424.797 104.875 426.717 106.582 428.68C109.014 431.709 109.355 434.504 107.606 437.064C105.857 439.667 102.913 441.309 98.774 441.992C96.6407 442.333 94.5927 442.248 92.63 441.736C90.6673 441.224 88.7687 440.285 86.934 438.92C85.0567 437.597 83.414 436.253 82.006 434.888C80.598 433.523 78.9767 431.773 77.142 429.64L79.19 427.976C82.2193 431.432 85.398 433.864 88.726 435.272C92.054 436.723 94.9127 437.085 97.302 436.36C99.6913 435.677 101.291 434.163 102.102 431.816C102.785 429.939 102.294 428.253 100.63 426.76C98.9233 425.309 97.238 425.117 95.574 426.184L90.07 429.448L84.822 424.84C89.814 421.64 93.2487 420.061 95.126 420.104ZM98.272 380.528V374.384H155.104V380.528H132V387.696C134.475 385.52 137.504 384.496 141.088 384.624C142.283 384.667 144.181 386.053 146.784 388.784C149.429 391.515 151.435 393.883 152.8 395.888C154.251 398.107 153.781 400.731 151.392 403.76C149.045 406.747 146.059 408.859 142.432 410.096L136.416 404.592C141.024 402.971 144.032 401.136 145.44 399.088C146.421 397.68 146.933 396.357 146.976 395.12C147.061 393.883 146.741 392.965 146.016 392.368C145.333 391.728 144.395 391.323 143.2 391.152C142.005 390.981 140.64 391.259 139.104 391.984C135.477 393.648 133.109 396.187 132 399.6V417.584L124 414V405.04C121.44 408.027 118.837 409.52 116.192 409.52C111.115 409.52 106.464 405.424 102.24 397.232C101.344 395.525 101.877 393.477 103.84 391.088C105.845 388.699 108.256 386.821 111.072 385.456C113.888 384.091 115.915 383.813 117.152 384.624C119.285 386.203 121.568 387.76 124 389.296V380.528H98.272ZM108.448 401.2C108.917 401.755 109.643 402.203 110.624 402.544C111.605 402.885 112.8 403.077 114.208 403.12C115.616 403.12 117.195 402.587 118.944 401.52C120.736 400.453 122.421 398.853 124 396.72V392.688C120.757 391.067 117.813 390.704 115.168 391.6C112.523 392.496 110.453 394.032 108.96 396.208C107.509 398.384 107.339 400.048 108.448 401.2ZM154.43 380.528V374.384H172.158V380.528H167.23V417.584L159.294 414V380.528H154.43ZM201.762 413.936V394.224L191.778 394.096C193.698 397.253 194.231 399.899 193.378 402.032C192.567 404.123 191.138 405.68 189.09 406.704C187.042 407.685 185.506 407.749 184.482 406.896C179.319 402.501 176.631 400.197 176.418 399.984C174.54 398.192 173.794 395.931 174.178 393.2C174.562 390.469 175.842 388.763 178.018 388.08C178.188 388.037 186.103 388.037 201.762 388.08V380.528H168.737V374.384H214.626V380.528H209.698V417.52L201.762 413.936ZM186.978 394.032C182.796 393.989 180.45 394.907 179.938 396.784C179.596 398.064 180.108 399.28 181.474 400.432C182.967 401.669 184.396 401.883 185.762 401.072C187.383 400.133 188.172 397.787 188.13 394.032H186.978ZM213.177 380.528V374.384H258.617V380.528H253.817V417.584L245.881 414V402.992H232.633C232.633 405.168 232.334 407.003 231.737 408.496C231.182 409.989 230.478 411.056 229.625 411.696C228.814 412.293 227.918 412.699 226.937 412.912C225.956 413.083 225.102 413.104 224.377 412.976C223.652 412.848 223.076 412.635 222.649 412.336C219.876 410.459 217.614 408.475 215.865 406.384C215.438 405.872 215.161 405.211 215.033 404.4C214.905 403.589 214.969 402.715 215.225 401.776C215.481 400.837 215.929 399.963 216.569 399.152C217.252 398.299 218.297 397.637 219.705 397.168C221.113 396.656 222.777 396.443 224.697 396.528V380.528H213.177ZM232.633 396.72L245.881 396.656V380.528H232.633V396.72ZM224.633 402.736C223.31 402.565 222.244 402.715 221.433 403.184C220.622 403.653 220.196 404.208 220.153 404.848C220.153 405.488 220.324 406.085 220.665 406.64C221.049 406.939 221.54 407.152 222.137 407.28C222.734 407.365 223.289 407.003 223.801 406.192C224.356 405.381 224.633 404.229 224.633 402.736ZM240.538 420.272C240.666 419.845 241.349 419.227 242.586 418.416C243.781 417.648 244.613 417.2 245.082 417.072C245.424 416.987 248.026 418.629 252.89 422C257.754 425.413 260.315 427.291 260.571 427.632C260.528 427.76 260.165 428.037 259.483 428.464C258.843 428.891 258.416 429.147 258.203 429.232C258.075 429.147 256.538 428.379 253.594 426.928C250.65 425.477 247.792 424.048 245.018 422.64C242.245 421.275 240.752 420.485 240.538 420.272Z" fill="black"/>
<path d="M588.231 349.994C588.973 348.828 590.424 348.33 591.725 348.796L607.365 354.39C609.003 354.976 609.21 357.208 607.709 358.086C607.254 358.352 606.714 358.432 606.201 358.31L590.043 354.463C588.064 353.991 587.139 351.71 588.231 349.994Z" fill="black"/>
<path d="M259.362 374.036C261.34 373.944 263.933 374.042 265.904 374.176C266.522 374.217 266.209 374.403 266.635 374.44C267.469 374.512 268.246 374.421 269.07 374.507C269.343 374.536 269.003 374.83 269.289 374.854C270.859 374.984 272.343 374.909 273.932 374.972C281.762 375.28 289.458 375.39 297.383 375.524C299.996 375.568 303.173 375.835 305.872 375.718C306.187 375.704 305.999 375.446 306.059 375.425C307 375.1 306.687 375.62 307.301 375.689C309.738 375.963 312.447 375.986 314.792 375.887C315.79 375.844 314.789 375.331 315.794 375.619C315.864 375.638 315.611 375.912 315.884 375.942C316.505 376.007 317.682 375.958 318.163 375.98C319.089 376.023 319.243 376.02 320.119 376.024C321.317 376.03 322.743 376.166 324.028 376.104C324.303 376.09 323.939 375.809 324.377 375.762C324.815 375.714 325.974 375.738 326.365 375.804C326.755 375.87 326.589 376.091 326.658 376.141C327.227 376.568 328.568 375.977 328.74 375.962C331.885 375.713 334.581 376.05 337.533 376.049C339.774 376.048 342.17 375.937 344.303 375.952C346.843 375.971 348.996 376.123 351.464 376.097C351.724 376.095 351.419 375.764 351.737 375.761C355.117 375.722 358.473 375.758 361.838 375.981C362.175 376.004 361.74 376.294 362.078 376.334C364.142 376.572 367.408 377.144 368.634 375.882C370.032 375.931 371.73 375.982 372.981 376.237C373.788 376.401 373.004 376.716 373.995 376.582C374.218 376.552 373.928 376.275 374.263 376.251C375.674 376.15 377.215 376.24 378.611 376.097C378.895 376.067 378.817 375.819 378.898 375.774C379.574 375.413 380.699 376.01 380.945 376.054C382.813 376.378 384.177 376.25 385.918 376.258C386.322 376.26 385.844 375.927 386.233 375.917C388.248 375.869 390.336 375.898 392.31 376.046C392.749 376.079 392.345 376.363 392.555 376.394C393.48 376.525 393.685 375.989 394.572 376.105C394.759 376.129 394.654 376.372 394.688 376.398C395.222 376.817 395.686 376.224 395.823 376.211C397.56 376.032 398.671 376.651 400.349 376.563C400.55 376.552 400.097 376.245 400.661 376.232C404.421 376.148 408.398 376.232 412.12 376.478C412.698 376.516 412.285 376.746 412.322 376.775C412.915 377.219 413.299 376.624 413.488 376.601C414.976 376.44 416.367 376.939 417.378 376.23C423.682 376.476 429.957 376.078 436.209 376.713C436.288 376.72 436.146 377.014 436.304 377.027C438.214 377.192 437.847 376.736 439.111 376.179C439.429 376.039 440.397 376.712 440.483 376.761C440.795 376.943 440.471 377.379 440.576 377.414C441.441 377.691 441.3 376.248 442.466 376.247C442.503 376.25 442.35 376.515 442.448 376.542C442.752 376.625 443.053 376.519 443.351 376.611C444.032 376.822 444.275 377.523 445.316 377.115C445.447 377.062 445.246 376.244 446.288 376.282C446.703 376.299 448.541 376.285 449.057 376.338C449.571 376.391 449.218 376.654 449.255 376.666C450.641 377.014 450.115 377.159 450.81 377.675C451.504 378.19 451.312 376.963 451.595 376.826C451.879 376.689 452.895 376.977 453.145 377.077C453.395 377.177 453.083 377.345 453.305 377.401C454.777 377.771 453.951 376.792 454.436 376.598C455.58 376.137 456.47 377.047 457.517 377.136C457.8 377.16 457.569 376.953 457.822 376.933C458.821 376.859 459.421 377.143 460.558 376.883C460.744 376.84 461.663 376.293 462.257 376.695C462.341 376.753 462.102 376.979 462.528 377.03C463.164 377.106 464.31 377.156 464.994 377.08C465.498 377.024 464.92 376.65 465.555 376.767C465.837 376.818 465.314 377.037 465.845 377.116C466.372 377.195 467.721 377.186 468.235 377.178C468.747 377.17 468.467 376.887 468.508 376.868C468.759 376.758 469.742 376.622 469.829 376.622C474.213 376.588 478.255 377.065 482.523 376.907C482.858 376.895 482.635 376.596 482.686 376.591C483.833 376.466 482.929 377.261 483.73 377.527C483.614 376.92 484.087 377.03 484.895 376.964C485.284 376.931 485.072 376.696 485.108 376.672C485.685 376.315 486.087 376.776 486.19 376.87C486.573 377.217 486.988 376.807 487.249 377.039C487.509 377.269 486.91 377.61 487.685 377.606C487.902 377.389 487.327 376.821 487.915 376.729C490.134 376.382 494.276 376.827 496.061 376.873C497.841 376.919 498.417 376.879 499.454 376.958C501.328 377.099 500.641 376.678 501.805 376.486C502.972 376.293 502.405 377.329 502.573 377.551C502.738 377.774 502.917 377.545 503.122 377.667C503.326 377.789 502.884 377.941 503.365 377.987C503.845 378.033 505.159 377.637 505.329 377.404C505.689 376.911 505.097 376.393 506.369 376.575C506.442 376.586 506.205 376.858 506.485 376.886C508.709 377.095 511.019 377.108 513.24 377.294C513.546 377.32 513.273 377.623 513.451 377.641C515.302 377.835 514.64 377.324 515.655 376.757C515.427 377.512 515.988 377.974 517.393 377.978C518.238 377.981 518.093 377.651 518.639 377.419C518.803 377.349 519.401 377.575 519.509 377.42C519.866 376.913 519.303 376.346 520.752 376.572C520.815 376.582 520.613 376.86 520.833 376.877C522.252 376.987 522.422 376.456 523.957 376.392C525.16 376.342 527.299 376.665 528.668 376.718C528.64 377.567 529.933 377.372 530.458 376.787C531.347 376.811 532.307 376.778 533.166 376.859C533.462 376.886 533.267 377.132 533.305 377.159C533.877 377.575 534.263 377.006 534.455 376.984C536.534 376.767 538.228 377.198 540.213 376.776C540.283 376.761 540.397 376.171 540.928 376.602C540.962 376.632 540.307 376.9 541.24 376.921C542.174 376.942 543.934 377.258 545.23 376.984C545.544 376.919 546.337 376.44 546.974 376.814C547.059 376.865 546.966 377.034 547.088 377.128C547.484 377.428 547.7 376.832 548.166 377.338C548.631 377.845 549.599 378.224 550.906 377.874C550.948 377.864 551.257 377.392 551.668 377.399C552.324 377.412 553.256 377.51 553.941 377.507C554.269 377.505 554.059 377.212 554.116 377.207C556.322 377.042 557.892 377.304 560.255 377.417C560.689 377.439 561.933 377.039 562.772 377.355C563.693 377.701 562.747 379.141 564.863 378.798C565.717 378.661 566.798 376.834 568.332 377.78C571.308 377.546 574.059 378.03 577.043 377.695C577.178 377.681 577.602 377.171 577.917 377.178C578.386 377.189 578.643 377.427 578.977 377.443C580.378 377.515 581.66 377.311 583.011 377.342C583.524 377.354 583.345 377.6 583.957 377.614C584.568 377.628 584.976 377.303 585.804 377.46C586.43 377.579 587.056 378.243 587.886 378.32C587.918 377.666 588.488 377.679 589.502 377.507C589.697 377.473 589.488 377.245 589.58 377.218C589.955 377.1 590.303 377.289 590.659 377.161C590.745 377.131 590.749 376.907 590.82 376.87C591.423 376.54 592.415 377.043 592.586 377.131C593.239 377.463 593.544 377.172 594.045 377.303C594.546 377.434 593.798 377.598 594.382 377.677C595.593 377.841 597.15 377.805 598.38 377.815C598.871 377.818 598.536 377.52 598.606 377.513C599.621 377.438 600.648 377.755 601.211 377.161C601.914 378.697 601.823 377.012 603.274 377.319C603.388 377.344 603.533 378.071 603.094 378.177C602.656 378.284 601.99 378.057 601.382 378.223C601.237 378.262 600.412 378.943 600.299 378.984C599.416 379.306 599.291 378.221 599.245 378.161C598.715 377.518 597.706 378.251 597.44 378.302C596.224 378.534 595.191 378.381 594.175 378.547C593.51 378.654 593.445 379.365 592.922 379.343C591.186 379.271 590.58 378.279 588.945 379.139C588.594 379.323 588.942 380.1 587.685 379.489C587.606 379.45 586.673 378.891 586.134 379.245C586.066 379.29 586.069 379.516 585.979 379.535C585.381 379.658 584.982 379.478 584.33 379.564C583.678 379.651 582.894 379.779 582.15 379.703C581.701 379.657 581.125 379.235 580.911 379.131C580.304 378.834 579.654 379.322 579.279 378.961C578.9 378.599 579.64 378.049 578.647 377.815C578.61 378.403 578.526 379.007 578.467 379.599C576.29 379.578 574.148 379.388 571.964 379.414C571.693 379.418 571.97 379.734 571.68 379.747C570.455 379.797 569.386 379.571 568.115 379.661C567.132 379.732 566.054 380.067 565.026 380.151C564.398 379.478 562.873 379.706 561.765 379.645C561.377 379.624 561.403 379.444 561.127 379.385C560.085 379.168 560.573 379.763 560.288 379.857C559.063 380.256 558.958 378.91 557.514 378.943C557.437 378.944 556.502 379.662 556.373 379.707C555.555 379.998 556.238 379.457 555.725 379.404C554.79 379.307 554.14 379.136 553.043 379.346C552.723 379.408 551.956 379.856 551.334 379.509C551.252 379.464 551.298 379.227 551.232 379.213C550.041 378.981 550.01 379.727 549.329 379.979C548.649 380.232 547.597 379.717 547.383 379.569C546.824 379.185 547.812 379.405 547.843 379.367C548.199 378.919 547.432 378.996 546.846 378.958C546.761 378.227 545.942 378.271 546.239 378.922C546.272 378.993 546.728 378.925 546.846 378.958C546.332 379.676 545.431 379.767 544.437 379.097C543.971 378.783 544.412 378.417 542.997 378.551C542.356 378.611 542.604 379.115 542.037 379.252C540.744 379.565 539.062 379.095 537.728 379.169C537.244 379.196 537.716 379.472 537.385 379.5C536.507 379.574 535.732 379.368 534.851 379.474C534.771 379.484 534.966 379.772 534.692 379.776C532.613 379.809 530.803 379.624 528.632 379.619C527.583 379.617 525.708 379.776 524.622 379.744C522.739 379.69 520.423 379.271 518.814 379.373C517.765 379.438 517.995 379.726 517.546 379.923C516.678 380.304 515.143 379.622 514.936 379.516C514.93 379.512 515.832 379.444 515.351 379.296C515.071 378.988 514.946 379.515 514.936 379.516C514.8 379.448 512.997 379.382 512.639 379.437C512.444 379.467 512.553 379.741 512.451 379.751C510.04 379.996 507.624 380.065 505.178 379.938C505.135 379.932 505.2 379.626 505.099 379.617C503.683 379.481 502.777 379.855 501.609 380.077C500.441 380.299 499.515 380.225 498.824 379.7C497.943 379.766 496.679 379.534 495.952 379.393C495.224 379.252 495.123 379.848 495.059 379.859C493.063 380.236 491.909 379.895 489.838 379.842C488.854 379.816 486.901 379.902 485.835 379.967C484.992 380.02 484.485 379.88 483.708 379.97C483.603 379.982 483.709 380.247 483.677 380.257C482.811 380.574 483.227 379.926 483.049 379.81C482.4 379.389 481.999 379.165 480.89 379.363C480.634 379.409 479.889 380.341 479.422 380.396C478.816 380.465 479.045 380.131 478.41 380.212C478.355 380.218 478.367 380.425 477.975 380.416C476.155 380.376 474.172 380.256 472.281 380.277C472.023 380.279 472.354 380.606 471.981 380.614C470.23 380.653 468.311 380.641 466.605 380.488C466.186 380.449 466.449 380.22 466.358 380.152C465.798 379.74 465.005 380.338 464.874 380.35C461.751 380.637 459.361 380.096 456.177 380.354C456.004 380.369 454.67 381.01 454.075 380.46C454.035 380.423 453.446 379.861 452.925 380.246C452.893 380.27 453.26 380.559 452.62 380.53C451.979 380.5 450.949 380.694 450.069 380.375C449.791 380.275 449.132 379.714 448.301 380.161C448.247 380.193 446.964 381.204 446.506 380.506C446.432 380.391 446.51 379.653 445.518 380.032C445.328 380.105 445.672 380.27 445.173 380.372C444.408 380.531 443.395 380.333 442.454 380.662C442.29 380.72 441.592 381.222 441.032 380.841C440.945 380.782 441.111 380.535 440.815 380.507C439.409 380.375 437.937 380.54 436.509 380.369C436.003 380.31 436.262 379.911 435.735 379.804C435.208 379.697 434.145 379.595 433.594 379.777C433.042 379.959 433.645 380.594 432.818 380.645C429.224 380.866 425.665 380.493 422.076 380.439C421.544 380.431 421.985 380.658 421.201 380.662C418.309 380.679 413.317 380.892 410.808 380.409C408.798 380.022 411.328 379.728 409.791 379.571C409.05 379.495 408.248 380.234 408.069 380.257C406.321 380.493 405.106 380.166 403.532 380.267C403.207 380.287 403.526 380.587 403.25 380.601C402.305 380.653 401.312 380.519 400.41 380.544C400.005 380.555 400.079 380.784 399.707 380.766C398.815 380.727 398.027 380.631 397.158 380.416C397.078 380.397 397.613 380.113 396.953 380.102C395.885 380.086 394.56 379.874 393.332 380.093C392.968 380.158 392.953 380.681 392.17 380.32C392.006 380.245 392.215 379.617 391.303 380.159C391.149 380.249 389.616 380.98 388.864 380.509C388.666 380.385 388.159 379.872 387.721 379.953C387.661 379.965 387.899 380.246 387.536 380.273C386.256 380.365 384.915 380.335 383.6 380.423C383.249 380.447 383.772 380.737 383.249 380.764C381.81 380.837 380.013 380.763 378.606 380.672C378.087 380.638 378.445 380.398 378.408 380.372C377.801 379.946 377.442 380.521 377.24 380.554C375.987 380.755 375.033 380.485 373.878 380.556C373.559 380.575 373.785 380.849 373.722 380.874C373.063 381.112 373.554 380.62 373.137 380.566C371.97 380.412 370.669 380.434 369.489 380.469C369.056 380.483 369.543 380.8 369.154 380.809C366.851 380.863 364.458 380.833 362.211 380.658C361.788 380.624 362.054 380.38 361.966 380.324C361.358 379.933 360.467 380.466 360.262 380.517C359.331 380.749 358.969 380.532 358.146 380.573C354.125 380.774 349.161 380.631 345.366 380.542C340.421 380.428 336.584 380.195 331.868 380.256C331.568 380.259 331.871 380.585 331.612 380.592C328.277 380.671 324.993 380.543 321.65 380.637C321.376 380.645 321.771 380.953 321.331 380.975C320.428 381.022 319.284 381.005 318.371 380.907C317.926 380.859 318.523 380.594 318.075 380.552C317.031 380.453 315.913 380.431 314.841 380.48C314.384 380.502 315.073 380.817 314.48 380.821C310.44 380.852 306.473 380.907 302.391 380.498C302.111 380.47 301.866 379.829 301.271 379.952C301.226 380.13 301.229 380.339 301.209 380.529C295.329 380.632 289.509 380.409 283.612 380.375C283.363 380.374 283.793 380.714 283.311 380.713C280.526 380.708 277.82 380.802 274.971 380.464C274.688 380.431 274.833 379.833 274 379.923C273.853 379.94 272.598 380.02 272.273 380.149C272.229 380.169 272.458 380.448 272.054 380.456C269.704 380.499 267.241 380.435 264.895 380.264C264.517 380.236 264.92 379.939 264.65 379.917C262.738 379.759 260.657 379.985 258.829 379.715C257.606 379.533 258.059 379.02 257.408 378.514C257.316 378.443 256.559 378.431 256.52 378.137C256.419 377.397 256.786 376.587 256.635 375.799C256.604 375.629 255.589 375.812 256.19 375.401C256.232 375.374 256.967 375.238 257.149 375.099C257.275 375.002 257.047 374.703 257.305 374.58C257.562 374.457 257.845 374.708 258.272 374.563C258.698 374.416 258.511 374.076 259.362 374.036ZM492.677 378.764C492.003 378.478 491.904 379.525 492.632 379.274C492.668 379.261 492.712 378.778 492.677 378.764ZM574.16 378.599C573.28 378.137 572.677 378.816 573.298 379.172C573.92 379.529 574.429 378.739 574.16 378.599ZM583.29 378.261C582.261 377.897 582.099 379.382 583.201 379.082C583.265 379.065 583.35 378.283 583.29 378.261ZM260.423 378.37C260.414 378.356 259.87 378.343 259.857 378.356C259.567 378.689 260.656 378.716 260.423 378.37ZM592.35 377.894C592.029 377.694 591.104 377.925 591.503 378.175C591.824 378.376 592.75 378.144 592.35 377.894ZM457.546 377.647C457.535 377.631 457.144 377.617 457.152 377.705C457.179 377.989 457.722 377.909 457.546 377.647ZM607.748 377.877C605.473 377.822 604.094 376.595 606.571 376.734C607.02 376.759 605.604 377.125 606.175 377.235C607.22 377.437 607.914 376.667 608.98 377.079C609.173 377.155 607.878 377.883 607.744 377.879C607.746 377.879 607.747 377.878 607.748 377.877ZM492.289 377.507C492.275 377.493 491.735 377.48 491.722 377.493C491.429 377.826 492.518 377.852 492.289 377.507ZM434.763 376.999C434.733 376.97 433.478 376.942 433.437 376.969C432.783 377.513 435.319 377.57 434.763 376.999ZM528.69 376.74C529.28 376.406 529.985 376.367 530.455 376.787C529.869 376.764 529.279 376.761 528.69 376.74Z" fill="black"/>
<defs>
<linearGradient id="paint0_linear_414_111" x1="332.5" y1="218" x2="332.5" y2="407" gradientUnits="userSpaceOnUse">
<stop/>
</linearGradient>
</defs>
</svg>
