<svg width="559" height="227" viewBox="0 0 559 227" fill="none" xmlns="http://www.w3.org/2000/svg">
<path d="M26.24 120.472C32.9813 123.885 41.1307 122.221 50.688 115.48V79.512C48.2133 78.0613 44.7573 77.08 40.32 76.568C36.8213 76.2267 33.408 78.0187 30.08 81.944C26.752 85.784 24.2347 90.264 22.528 95.384C20.8213 100.504 20.1813 105.581 20.608 110.616C21.12 115.565 22.9973 118.851 26.24 120.472ZM50.688 36.12L66.688 39.704C67.2 97.304 67.2 126.36 66.688 126.872C66.2613 126.957 64.0427 127.427 60.032 128.28C56.1067 129.219 53.5893 129.773 52.48 129.944C51.3707 130.115 49.0667 130.371 45.568 130.712C42.1547 131.053 39.424 131.053 37.376 130.712C35.4133 130.371 32.9387 129.773 29.952 128.92C26.9653 128.152 24.1067 127 21.376 125.464C16.512 122.819 12.7573 119.576 10.112 115.736C7.46667 111.896 6.05867 107.971 5.888 103.96C5.71733 99.9493 6.18667 95.896 7.296 91.8C8.40533 87.6187 10.1547 83.8213 12.544 80.408C15.0187 76.9093 17.6213 73.8373 20.352 71.192C23.168 68.5467 26.112 66.6693 29.184 65.56C32.256 64.3653 34.9867 64.152 37.376 64.92C38.4853 65.2613 39.6373 65.7733 40.832 66.456C42.112 67.0533 43.136 67.608 43.904 68.12C44.7573 68.632 45.9093 69.4 47.36 70.424C48.896 71.448 50.0053 72.1733 50.688 72.6V36.12ZM126.197 65.944L142.197 69.528V130.84L126.197 127.256V120.856C119.37 127.853 113.056 131.139 107.253 130.712C104.522 130.541 99.6583 127.384 92.661 121.24C85.6637 115.096 81.9517 110.829 81.525 108.44C81.1837 106.221 81.013 92.056 81.013 65.944L96.885 69.528C96.4583 98.8827 96.6717 114.456 97.525 116.248C99.2317 118.637 101.792 119.405 105.205 118.552C108.704 117.699 112.544 115.267 116.725 111.256C120.992 107.245 124.149 102.851 126.197 98.072V65.944ZM174.314 39.704V88.472L198.506 65.688L213.226 69.272L189.802 91.288L216.81 124.952L207.85 130.84L182.89 97.816L174.314 105.88V130.712L158.314 127.128V36.12L174.314 39.704ZM236.193 82.072L229.281 70.424C235.254 68.888 241.868 67.4373 249.121 66.072C256.46 64.7067 261.068 64.0667 262.945 64.152C264.822 64.2373 268.577 67.0533 274.209 72.6C279.841 78.0613 283.638 82.2427 285.601 85.144C286.284 86.168 286.625 89.624 286.625 95.512C286.625 101.315 286.497 107.971 286.241 115.48C286.07 122.989 286.028 128.067 286.113 130.712L270.241 127L270.369 120.472C263.457 127.384 257.825 130.84 253.473 130.84C249.377 130.755 244.172 126.872 237.857 119.192C231.542 111.512 228.385 106.008 228.385 102.68C228.385 100.035 230.177 97.6027 233.761 95.384C237.345 93.1653 241.697 91.4587 246.817 90.264C252.022 88.984 256.63 88.0027 260.641 87.32C264.652 86.6373 268.065 86.168 270.881 85.912L271.009 82.456C271.094 78.36 268.918 76.1413 264.481 75.8C260.385 75.544 251.766 77.3787 238.625 81.304H238.497L238.369 81.432H238.241H238.113L237.985 81.56H237.857H237.729L237.601 81.688H237.473H237.345L237.217 81.816H237.089H236.961H236.833L236.705 81.944H236.577H236.449L236.321 82.072H236.193ZM242.593 114.2C243.361 115.395 244.812 116.163 246.945 116.504C249.078 116.845 252.278 116.291 256.545 114.84C260.897 113.304 265.59 110.659 270.625 106.904L270.753 95.64C248.225 102.211 238.838 108.397 242.593 114.2ZM318.454 69.4V74.648C326.049 67.5653 332.705 64.1947 338.422 64.536C341.153 64.7067 345.931 68.12 352.758 74.776C359.67 81.3467 363.339 85.8267 363.766 88.216C364.107 90.4347 364.278 104.6 364.278 130.712L348.406 127.128C348.918 97.8587 348.705 82.3707 347.766 80.664C346.23 77.7627 343.67 76.9093 340.086 78.104C336.587 79.2133 332.918 81.2613 329.078 84.248C325.323 87.2347 321.782 90.7333 318.454 94.744V130.712L301.814 127.128V65.816L318.454 69.4Z" fill="url(#paint0_linear_412_109)"/>
<path d="M421.197 65.944L437.197 69.528V130.84L421.197 127.256V120.856C414.37 127.853 408.056 131.139 402.253 130.712C399.522 130.541 394.658 127.384 387.661 121.24C380.664 115.096 376.952 110.829 376.525 108.44C376.184 106.221 376.013 92.056 376.013 65.944L391.885 69.528C391.458 98.8827 391.672 114.456 392.525 116.248C394.232 118.637 396.792 119.405 400.205 118.552C403.704 117.699 407.544 115.267 411.725 111.256C415.992 107.245 419.149 102.851 421.197 98.072V65.944ZM469.314 69.4V72.856C475.373 66.968 480.962 64.1947 486.082 64.536C487.703 64.6213 490.349 66.1573 494.018 69.144C497.687 72.0453 501.186 75.288 504.514 78.872C512.535 68.888 519.959 64.1093 526.786 64.536C529.517 64.7067 534.295 68.12 541.122 74.776C548.034 81.3467 551.703 85.8267 552.13 88.216C552.471 90.4347 552.642 104.6 552.642 130.712L536.77 127.128C537.282 97.7733 537.069 82.2427 536.13 80.536C535.106 78.6587 533.613 77.6773 531.65 77.592C529.773 77.5067 527.682 78.1467 525.378 79.512C523.159 80.8773 520.898 82.6267 518.594 84.76C516.29 86.808 513.986 89.1547 511.682 91.8C511.853 96.4933 511.938 109.464 511.938 130.712L496.066 127.128C496.578 97.7733 496.365 82.2427 495.426 80.536C494.146 78.6587 492.525 77.6773 490.562 77.592C488.685 77.5067 486.466 78.3173 483.906 80.024C481.346 81.6453 478.829 83.6507 476.354 86.04C473.965 88.344 471.618 90.9467 469.314 93.848V130.712L453.314 127.128V65.816L469.314 69.4Z" fill="black"/>
<path d="M45.12 203.616L37.824 194.464C35.5627 196.043 32.9387 196.981 29.952 197.28C27.52 197.493 25.0667 196.576 22.592 194.528C20.7573 193.035 19.3707 191.904 18.432 191.136C17.4933 190.325 16.3627 189.259 15.04 187.936C13.76 186.571 12.6933 185.269 11.84 184.032C10.9867 182.837 10.6453 181.301 10.816 179.424C11.0293 177.504 11.4773 175.627 12.16 173.792C12.8427 171.957 13.7813 170.357 14.976 168.992C16.1707 167.627 17.3653 166.88 18.56 166.752L30.336 166.048V162.528H7.488V156.384H47.04V162.528H37.44V171.616H25.216C23.936 171.616 22.7627 172.256 21.696 173.536C20.672 174.816 19.9893 176.373 19.648 178.208C19.3067 180.043 19.2213 181.899 19.392 183.776C19.6053 185.653 20.3093 187.275 21.504 188.64C22.6987 190.005 24.2987 190.773 26.304 190.944C28.864 191.157 31.2107 190.432 33.344 188.768C31.552 186.421 30.7627 185.013 30.976 184.544C31.7867 182.923 33.28 181.451 35.456 180.128C36.1813 179.659 36.8853 179.403 37.568 179.36C38.2507 179.275 38.8907 179.381 39.488 179.68C40.0853 179.979 40.64 180.341 41.152 180.768C41.664 181.195 42.1973 181.749 42.752 182.432C43.7333 183.584 44.3307 184.757 44.544 185.952C44.8 187.104 44.5013 188.235 43.648 189.344L40.256 192.736L47.616 201.888L45.12 203.616ZM42.126 202.104C43.4487 202.147 45.262 203.085 47.566 204.92C49.87 206.797 51.8753 208.717 53.582 210.68C56.014 213.709 56.3553 216.504 54.606 219.064C52.8567 221.667 49.9127 223.309 45.774 223.992C43.6407 224.333 41.5927 224.248 39.63 223.736C37.6673 223.224 35.7687 222.285 33.934 220.92C32.0567 219.597 30.414 218.253 29.006 216.888C27.598 215.523 25.9767 213.773 24.142 211.64L26.19 209.976C29.2193 213.432 32.398 215.864 35.726 217.272C39.054 218.723 41.9127 219.085 44.302 218.36C46.6913 217.677 48.2913 216.163 49.102 213.816C49.7847 211.939 49.294 210.253 47.63 208.76C45.9233 207.309 44.238 207.117 42.574 208.184L37.07 211.448L31.822 206.84C36.814 203.64 40.2487 202.061 42.126 202.104ZM45.272 162.528V156.384H102.104V162.528H79V169.696C81.4747 167.52 84.504 166.496 88.088 166.624C89.2827 166.667 91.1813 168.053 93.784 170.784C96.4293 173.515 98.4347 175.883 99.8 177.888C101.251 180.107 100.781 182.731 98.392 185.76C96.0453 188.747 93.0587 190.859 89.432 192.096L83.416 186.592C88.024 184.971 91.032 183.136 92.44 181.088C93.4213 179.68 93.9333 178.357 93.976 177.12C94.0613 175.883 93.7413 174.965 93.016 174.368C92.3333 173.728 91.3947 173.323 90.2 173.152C89.0053 172.981 87.64 173.259 86.104 173.984C82.4773 175.648 80.1093 178.187 79 181.6V199.584L71 196V187.04C68.44 190.027 65.8373 191.52 63.192 191.52C58.1147 191.52 53.464 187.424 49.24 179.232C48.344 177.525 48.8773 175.477 50.84 173.088C52.8453 170.699 55.256 168.821 58.072 167.456C60.888 166.091 62.9147 165.813 64.152 166.624C66.2853 168.203 68.568 169.76 71 171.296V162.528H45.272ZM55.448 183.2C55.9173 183.755 56.6427 184.203 57.624 184.544C58.6053 184.885 59.8 185.077 61.208 185.12C62.616 185.12 64.1947 184.587 65.944 183.52C67.736 182.453 69.4213 180.853 71 178.72V174.688C67.7573 173.067 64.8133 172.704 62.168 173.6C59.5227 174.496 57.4533 176.032 55.96 178.208C54.5093 180.384 54.3387 182.048 55.448 183.2ZM101.43 162.528V156.384H119.158V162.528H114.23V199.584L106.294 196V162.528H101.43ZM148.762 195.936V176.224L138.778 176.096C140.698 179.253 141.231 181.899 140.378 184.032C139.567 186.123 138.138 187.68 136.09 188.704C134.042 189.685 132.506 189.749 131.482 188.896C126.319 184.501 123.631 182.197 123.418 181.984C121.54 180.192 120.794 177.931 121.178 175.2C121.562 172.469 122.842 170.763 125.018 170.08C125.188 170.037 133.103 170.037 148.762 170.08V162.528H115.737V156.384H161.626V162.528H156.698V199.52L148.762 195.936ZM133.978 176.032C129.796 175.989 127.45 176.907 126.938 178.784C126.596 180.064 127.108 181.28 128.474 182.432C129.967 183.669 131.396 183.883 132.762 183.072C134.383 182.133 135.172 179.787 135.13 176.032H133.978ZM160.177 162.528V156.384H205.617V162.528H200.817V199.584L192.881 196V184.992H179.633C179.633 187.168 179.334 189.003 178.737 190.496C178.182 191.989 177.478 193.056 176.625 193.696C175.814 194.293 174.918 194.699 173.937 194.912C172.956 195.083 172.102 195.104 171.377 194.976C170.652 194.848 170.076 194.635 169.649 194.336C166.876 192.459 164.614 190.475 162.865 188.384C162.438 187.872 162.161 187.211 162.033 186.4C161.905 185.589 161.969 184.715 162.225 183.776C162.481 182.837 162.929 181.963 163.569 181.152C164.252 180.299 165.297 179.637 166.705 179.168C168.113 178.656 169.777 178.443 171.697 178.528V162.528H160.177ZM179.633 178.72L192.881 178.656V162.528H179.633V178.72ZM171.633 184.736C170.31 184.565 169.244 184.715 168.433 185.184C167.622 185.653 167.196 186.208 167.153 186.848C167.153 187.488 167.324 188.085 167.665 188.64C168.049 188.939 168.54 189.152 169.137 189.28C169.734 189.365 170.289 189.003 170.801 188.192C171.356 187.381 171.633 186.229 171.633 184.736ZM187.538 202.272C187.666 201.845 188.349 201.227 189.586 200.416C190.781 199.648 191.613 199.2 192.082 199.072C192.424 198.987 195.026 200.629 199.89 204C204.754 207.413 207.315 209.291 207.571 209.632C207.528 209.76 207.165 210.037 206.483 210.464C205.843 210.891 205.416 211.147 205.203 211.232C205.075 211.147 203.538 210.379 200.594 208.928C197.65 207.477 194.792 206.048 192.018 204.64C189.245 203.275 187.752 202.485 187.538 202.272Z" fill="black"/>
<path d="M536.5 130L558.5 137.87L554 140.5L533 135.5L536.5 130Z" fill="black"/>
<path d="M206.362 156.036C208.34 155.944 210.933 156.042 212.904 156.176C213.522 156.217 213.209 156.403 213.635 156.44C214.469 156.512 215.246 156.421 216.07 156.507C216.343 156.536 216.003 156.83 216.289 156.854C217.859 156.984 219.343 156.909 220.932 156.972C228.762 157.28 236.458 157.39 244.383 157.524C246.996 157.568 250.173 157.835 252.872 157.718C253.187 157.704 252.999 157.446 253.059 157.425C254 157.1 253.687 157.62 254.301 157.689C256.738 157.963 259.447 157.986 261.792 157.887C262.79 157.844 261.789 157.331 262.794 157.619C262.864 157.638 262.611 157.912 262.884 157.942C263.505 158.007 264.682 157.958 265.163 157.98C266.089 158.023 266.243 158.02 267.119 158.024C268.317 158.03 269.743 158.166 271.028 158.104C271.303 158.09 270.939 157.809 271.377 157.762C271.815 157.714 272.974 157.738 273.365 157.804C273.755 157.87 273.589 158.091 273.658 158.141C274.227 158.568 275.568 157.977 275.74 157.962C278.885 157.713 281.581 158.05 284.533 158.049C286.774 158.048 289.17 157.937 291.303 157.952C293.843 157.971 295.996 158.123 298.464 158.097C298.724 158.095 298.419 157.764 298.737 157.761C302.117 157.722 305.473 157.758 308.838 157.981C309.175 158.004 308.74 158.294 309.078 158.334C311.142 158.572 314.408 159.144 315.634 157.882C317.032 157.931 318.73 157.982 319.981 158.237C320.788 158.401 320.004 158.716 320.995 158.582C321.218 158.552 320.928 158.275 321.263 158.251C322.674 158.15 324.215 158.24 325.611 158.097C325.895 158.067 325.817 157.819 325.898 157.774C326.574 157.413 327.699 158.01 327.945 158.054C329.813 158.378 331.177 158.25 332.918 158.258C333.322 158.26 332.844 157.927 333.233 157.917C335.248 157.869 337.336 157.898 339.31 158.046C339.749 158.079 339.345 158.363 339.555 158.394C340.48 158.525 340.685 157.989 341.572 158.105C341.759 158.129 341.654 158.372 341.688 158.398C342.222 158.817 342.686 158.224 342.823 158.211C344.56 158.032 345.671 158.651 347.349 158.563C347.55 158.552 347.097 158.245 347.661 158.232C351.421 158.148 355.398 158.232 359.12 158.478C359.698 158.516 359.285 158.746 359.322 158.775C359.915 159.219 360.299 158.624 360.488 158.601C361.976 158.44 363.367 158.939 364.378 158.23C370.682 158.476 376.957 158.078 383.209 158.713C383.288 158.72 383.146 159.014 383.304 159.027C385.214 159.192 384.847 158.736 386.111 158.179C386.429 158.039 387.397 158.712 387.483 158.761C387.795 158.943 387.471 159.379 387.576 159.414C388.441 159.691 388.3 158.248 389.466 158.247C389.503 158.25 389.35 158.515 389.448 158.542C389.752 158.625 390.053 158.519 390.351 158.611C391.032 158.822 391.275 159.523 392.316 159.115C392.447 159.062 392.246 158.244 393.288 158.282C393.703 158.299 395.541 158.285 396.057 158.338C396.571 158.391 396.218 158.654 396.255 158.666C397.641 159.014 397.115 159.159 397.81 159.675C398.504 160.19 398.312 158.963 398.595 158.826C398.879 158.689 399.895 158.977 400.145 159.077C400.395 159.177 400.083 159.345 400.305 159.401C401.777 159.771 400.951 158.792 401.436 158.598C402.58 158.137 403.47 159.047 404.517 159.136C404.8 159.16 404.569 158.953 404.822 158.933C405.821 158.859 406.421 159.143 407.558 158.883C407.744 158.84 408.663 158.293 409.257 158.695C409.341 158.753 409.102 158.979 409.528 159.03C410.164 159.106 411.31 159.156 411.994 159.08C412.498 159.024 411.92 158.65 412.555 158.767C412.837 158.818 412.314 159.037 412.845 159.116C413.372 159.195 414.721 159.186 415.235 159.178C415.747 159.17 415.467 158.887 415.508 158.868C415.759 158.758 416.742 158.622 416.829 158.622C421.213 158.588 425.255 159.065 429.523 158.907C429.858 158.895 429.635 158.596 429.686 158.591C430.833 158.466 429.929 159.261 430.73 159.527C430.614 158.92 431.087 159.03 431.895 158.964C432.284 158.931 432.072 158.696 432.108 158.672C432.685 158.315 433.087 158.776 433.19 158.87C433.573 159.217 433.988 158.807 434.249 159.039C434.509 159.269 433.91 159.61 434.685 159.606C434.902 159.389 434.327 158.821 434.915 158.729C437.134 158.382 441.276 158.827 443.061 158.873C444.841 158.919 445.417 158.879 446.454 158.958C448.328 159.099 447.641 158.678 448.805 158.486C449.972 158.293 449.405 159.329 449.573 159.551C449.738 159.774 449.917 159.545 450.122 159.667C450.326 159.789 449.884 159.941 450.365 159.987C450.845 160.033 452.159 159.637 452.329 159.404C452.689 158.911 452.097 158.393 453.369 158.575C453.442 158.586 453.205 158.858 453.485 158.886C455.709 159.095 458.019 159.108 460.24 159.294C460.546 159.32 460.273 159.623 460.451 159.641C462.302 159.835 461.64 159.324 462.655 158.757C462.427 159.512 462.988 159.974 464.393 159.978C465.238 159.981 465.093 159.651 465.639 159.419C465.803 159.349 466.401 159.575 466.509 159.42C466.866 158.913 466.303 158.346 467.752 158.572C467.815 158.582 467.613 158.86 467.833 158.877C469.252 158.987 469.422 158.456 470.957 158.392C472.16 158.342 474.299 158.665 475.668 158.718C475.64 159.567 476.933 159.372 477.458 158.787C478.347 158.811 479.307 158.778 480.166 158.859C480.462 158.886 480.267 159.132 480.305 159.159C480.877 159.575 481.263 159.006 481.455 158.984C483.534 158.767 485.228 159.198 487.213 158.776C487.283 158.761 487.397 158.171 487.928 158.602C487.962 158.632 487.307 158.9 488.24 158.921C489.174 158.942 490.934 159.258 492.23 158.984C492.544 158.919 493.337 158.44 493.974 158.814C494.059 158.865 493.966 159.034 494.088 159.128C494.484 159.428 494.7 158.832 495.166 159.338C495.631 159.845 496.599 160.224 497.906 159.874C497.948 159.864 498.257 159.392 498.668 159.399C499.324 159.412 500.256 159.51 500.941 159.507C501.269 159.505 501.059 159.212 501.116 159.207C503.322 159.042 504.892 159.304 507.255 159.417C507.689 159.439 508.933 159.039 509.772 159.355C510.693 159.701 509.747 161.141 511.863 160.798C512.717 160.661 513.798 158.834 515.332 159.78C518.308 159.546 521.059 160.03 524.043 159.695C524.178 159.681 524.602 159.171 524.917 159.178C525.386 159.189 525.643 159.427 525.977 159.443C527.378 159.515 528.66 159.311 530.011 159.342C530.524 159.354 530.345 159.6 530.957 159.614C531.568 159.628 531.976 159.303 532.804 159.46C533.43 159.579 534.056 160.243 534.886 160.32C534.918 159.666 535.488 159.679 536.502 159.507C536.697 159.473 536.488 159.245 536.58 159.218C536.955 159.1 537.303 159.289 537.659 159.161C537.745 159.131 537.749 158.907 537.82 158.87C538.423 158.54 539.415 159.043 539.586 159.131C540.239 159.463 540.544 159.172 541.045 159.303C541.546 159.434 540.798 159.598 541.382 159.677C542.593 159.841 544.15 159.805 545.38 159.815C545.871 159.818 545.536 159.52 545.606 159.513C546.621 159.438 547.648 159.755 548.211 159.161C548.914 160.697 548.823 159.012 550.274 159.319C550.388 159.344 550.533 160.071 550.094 160.177C549.656 160.284 548.99 160.057 548.382 160.223C548.237 160.262 547.412 160.943 547.299 160.984C546.416 161.306 546.291 160.221 546.245 160.161C545.715 159.518 544.706 160.251 544.44 160.302C543.224 160.534 542.191 160.381 541.175 160.547C540.51 160.654 540.445 161.365 539.922 161.343C538.186 161.271 537.58 160.279 535.945 161.139C535.594 161.323 535.942 162.1 534.685 161.489C534.606 161.45 533.673 160.891 533.134 161.245C533.066 161.29 533.069 161.516 532.979 161.535C532.381 161.658 531.982 161.478 531.33 161.564C530.678 161.651 529.894 161.779 529.15 161.703C528.701 161.657 528.125 161.235 527.911 161.131C527.304 160.834 526.654 161.322 526.279 160.961C525.9 160.599 526.64 160.049 525.647 159.815C525.61 160.403 525.526 161.007 525.467 161.599C523.29 161.578 521.148 161.388 518.964 161.414C518.693 161.418 518.97 161.734 518.68 161.747C517.455 161.797 516.386 161.571 515.115 161.661C514.132 161.732 513.054 162.067 512.026 162.151C511.398 161.478 509.873 161.706 508.765 161.645C508.377 161.624 508.403 161.444 508.127 161.385C507.085 161.168 507.573 161.763 507.288 161.857C506.063 162.256 505.958 160.91 504.514 160.943C504.437 160.944 503.502 161.662 503.373 161.707C502.555 161.998 503.238 161.457 502.725 161.404C501.79 161.307 501.14 161.136 500.043 161.346C499.723 161.408 498.956 161.856 498.334 161.509C498.252 161.464 498.298 161.227 498.232 161.213C497.041 160.981 497.01 161.727 496.329 161.979C495.649 162.232 494.597 161.717 494.383 161.569C493.824 161.185 494.812 161.405 494.843 161.367C495.199 160.919 494.432 160.996 493.846 160.958C493.761 160.227 492.942 160.271 493.239 160.922C493.272 160.993 493.728 160.925 493.846 160.958C493.332 161.676 492.431 161.767 491.437 161.097C490.971 160.783 491.412 160.417 489.997 160.551C489.356 160.611 489.604 161.115 489.037 161.252C487.744 161.565 486.062 161.095 484.728 161.169C484.244 161.196 484.716 161.472 484.385 161.5C483.507 161.574 482.732 161.368 481.851 161.474C481.771 161.484 481.966 161.772 481.692 161.776C479.613 161.809 477.803 161.624 475.632 161.619C474.583 161.617 472.708 161.776 471.622 161.744C469.739 161.69 467.423 161.271 465.814 161.373C464.765 161.438 464.995 161.726 464.546 161.923C463.678 162.304 462.143 161.622 461.936 161.516C461.93 161.512 462.832 161.444 462.351 161.296C462.071 160.988 461.946 161.515 461.936 161.516C461.8 161.448 459.997 161.382 459.639 161.437C459.444 161.467 459.553 161.741 459.451 161.751C457.04 161.996 454.624 162.065 452.178 161.938C452.135 161.932 452.2 161.626 452.099 161.617C450.683 161.481 449.777 161.855 448.609 162.077C447.441 162.299 446.515 162.225 445.824 161.7C444.943 161.766 443.679 161.534 442.952 161.393C442.224 161.252 442.123 161.848 442.059 161.859C440.063 162.236 438.909 161.895 436.838 161.842C435.854 161.816 433.901 161.902 432.835 161.967C431.992 162.02 431.485 161.88 430.708 161.97C430.603 161.982 430.709 162.247 430.677 162.257C429.811 162.574 430.227 161.926 430.049 161.81C429.4 161.389 428.999 161.165 427.89 161.363C427.634 161.409 426.889 162.341 426.422 162.396C425.816 162.465 426.045 162.131 425.41 162.212C425.355 162.218 425.367 162.425 424.975 162.416C423.155 162.376 421.172 162.256 419.281 162.277C419.023 162.279 419.354 162.606 418.981 162.614C417.23 162.653 415.311 162.641 413.605 162.488C413.186 162.449 413.449 162.22 413.358 162.152C412.798 161.74 412.005 162.338 411.874 162.35C408.751 162.637 406.361 162.096 403.177 162.354C403.004 162.369 401.67 163.01 401.075 162.46C401.035 162.423 400.446 161.861 399.925 162.246C399.893 162.27 400.26 162.559 399.62 162.53C398.979 162.5 397.949 162.694 397.069 162.375C396.791 162.275 396.132 161.714 395.301 162.161C395.247 162.193 393.964 163.204 393.506 162.506C393.432 162.391 393.51 161.653 392.518 162.032C392.328 162.105 392.672 162.27 392.173 162.372C391.408 162.531 390.395 162.333 389.454 162.662C389.29 162.72 388.592 163.222 388.032 162.841C387.945 162.782 388.111 162.535 387.815 162.507C386.409 162.375 384.937 162.54 383.509 162.369C383.003 162.31 383.262 161.911 382.735 161.804C382.208 161.697 381.145 161.595 380.594 161.777C380.042 161.959 380.645 162.594 379.818 162.645C376.224 162.866 372.665 162.493 369.076 162.439C368.544 162.431 368.985 162.658 368.201 162.662C365.309 162.679 360.317 162.892 357.808 162.409C355.798 162.022 358.328 161.728 356.791 161.571C356.05 161.495 355.248 162.234 355.069 162.257C353.321 162.493 352.106 162.166 350.532 162.267C350.207 162.287 350.526 162.587 350.25 162.601C349.305 162.653 348.312 162.519 347.41 162.544C347.005 162.555 347.079 162.784 346.707 162.766C345.815 162.727 345.027 162.631 344.158 162.416C344.078 162.397 344.613 162.113 343.953 162.102C342.885 162.086 341.56 161.874 340.332 162.093C339.968 162.158 339.953 162.681 339.17 162.32C339.006 162.245 339.215 161.617 338.303 162.159C338.149 162.249 336.616 162.98 335.864 162.509C335.666 162.385 335.159 161.872 334.721 161.953C334.661 161.965 334.899 162.246 334.536 162.273C333.256 162.365 331.915 162.335 330.6 162.423C330.249 162.447 330.772 162.737 330.249 162.764C328.81 162.837 327.013 162.763 325.606 162.672C325.087 162.638 325.445 162.398 325.408 162.372C324.801 161.946 324.442 162.521 324.24 162.554C322.987 162.755 322.033 162.485 320.878 162.556C320.559 162.575 320.785 162.849 320.722 162.874C320.063 163.112 320.554 162.62 320.137 162.566C318.97 162.412 317.669 162.434 316.489 162.469C316.056 162.483 316.543 162.8 316.154 162.809C313.851 162.863 311.458 162.833 309.211 162.658C308.788 162.624 309.054 162.38 308.966 162.324C308.358 161.933 307.467 162.466 307.262 162.517C306.331 162.749 305.969 162.532 305.146 162.573C301.125 162.774 296.161 162.631 292.366 162.542C287.421 162.428 283.584 162.195 278.868 162.256C278.568 162.259 278.871 162.585 278.612 162.592C275.277 162.671 271.993 162.543 268.65 162.637C268.376 162.645 268.771 162.953 268.331 162.975C267.428 163.022 266.284 163.005 265.371 162.907C264.926 162.859 265.523 162.594 265.075 162.552C264.031 162.453 262.913 162.431 261.841 162.48C261.384 162.502 262.073 162.817 261.48 162.821C257.44 162.852 253.473 162.907 249.391 162.498C249.111 162.47 248.866 161.829 248.271 161.952C248.226 162.13 248.229 162.339 248.209 162.529C242.329 162.632 236.509 162.409 230.612 162.375C230.363 162.374 230.793 162.714 230.311 162.713C227.526 162.708 224.82 162.802 221.971 162.464C221.688 162.431 221.833 161.833 221 161.923C220.853 161.94 219.598 162.02 219.273 162.149C219.229 162.169 219.458 162.448 219.054 162.456C216.704 162.499 214.241 162.435 211.895 162.264C211.517 162.236 211.92 161.939 211.65 161.917C209.738 161.759 207.657 161.985 205.829 161.715C204.606 161.533 205.059 161.02 204.408 160.514C204.316 160.443 203.559 160.431 203.52 160.137C203.419 159.397 203.786 158.587 203.635 157.799C203.604 157.629 202.589 157.812 203.19 157.401C203.232 157.374 203.967 157.238 204.149 157.099C204.275 157.002 204.047 156.703 204.305 156.58C204.562 156.457 204.845 156.708 205.272 156.563C205.698 156.416 205.511 156.076 206.362 156.036ZM439.677 160.764C439.003 160.478 438.904 161.525 439.632 161.274C439.668 161.261 439.712 160.778 439.677 160.764ZM521.16 160.599C520.28 160.137 519.677 160.816 520.298 161.172C520.92 161.529 521.429 160.739 521.16 160.599ZM530.29 160.261C529.261 159.897 529.099 161.382 530.201 161.082C530.265 161.065 530.35 160.283 530.29 160.261ZM207.423 160.37C207.414 160.356 206.87 160.343 206.857 160.356C206.567 160.689 207.656 160.716 207.423 160.37ZM539.35 159.894C539.029 159.694 538.104 159.925 538.503 160.175C538.824 160.376 539.75 160.144 539.35 159.894ZM404.546 159.647C404.535 159.631 404.144 159.617 404.152 159.705C404.179 159.989 404.722 159.909 404.546 159.647ZM554.748 159.877C552.473 159.822 551.094 158.595 553.571 158.734C554.02 158.759 552.604 159.125 553.175 159.235C554.22 159.437 554.914 158.667 555.98 159.079C556.173 159.155 554.878 159.883 554.744 159.879C554.746 159.879 554.747 159.878 554.748 159.877ZM439.289 159.507C439.275 159.493 438.735 159.48 438.722 159.493C438.429 159.826 439.518 159.852 439.289 159.507ZM381.763 158.999C381.733 158.97 380.478 158.942 380.437 158.969C379.783 159.513 382.319 159.57 381.763 158.999ZM475.69 158.74C476.28 158.406 476.985 158.367 477.455 158.787C476.869 158.764 476.279 158.761 475.69 158.74Z" fill="black"/>
<defs>
<linearGradient id="paint0_linear_412_109" x1="279.5" y1="0" x2="279.5" y2="189" gradientUnits="userSpaceOnUse">
<stop/>
</linearGradient>
</defs>
</svg>
