<svg width="559" height="227" viewBox="0 0 559 227" fill="none" xmlns="http://www.w3.org/2000/svg">
<path d="M26.24 120.472C32.9813 123.885 41.1307 122.221 50.688 115.48V79.512C48.2133 78.0613 44.7573 77.08 40.32 76.568C36.8213 76.2267 33.408 78.0187 30.08 81.944C26.752 85.784 24.2347 90.264 22.528 95.384C20.8213 100.504 20.1813 105.581 20.608 110.616C21.12 115.565 22.9973 118.851 26.24 120.472ZM50.688 36.12L66.688 39.704C67.2 97.304 67.2 126.36 66.688 126.872C66.2613 126.957 64.0427 127.427 60.032 128.28C56.1067 129.219 53.5893 129.773 52.48 129.944C51.3707 130.115 49.0667 130.371 45.568 130.712C42.1547 131.053 39.424 131.053 37.376 130.712C35.4133 130.371 32.9387 129.773 29.952 128.92C26.9653 128.152 24.1067 127 21.376 125.464C16.512 122.819 12.7573 119.576 10.112 115.736C7.46667 111.896 6.05867 107.971 5.888 103.96C5.71733 99.9493 6.18667 95.896 7.296 91.8C8.40533 87.6187 10.1547 83.8213 12.544 80.408C15.0187 76.9093 17.6213 73.8373 20.352 71.192C23.168 68.5467 26.112 66.6693 29.184 65.56C32.256 64.3653 34.9867 64.152 37.376 64.92C38.4853 65.2613 39.6373 65.7733 40.832 66.456C42.112 67.0533 43.136 67.608 43.904 68.12C44.7573 68.632 45.9093 69.4 47.36 70.424C48.896 71.448 50.0053 72.1733 50.688 72.6V36.12ZM126.197 65.944L142.197 69.528V130.84L126.197 127.256V120.856C119.37 127.853 113.056 131.139 107.253 130.712C104.522 130.541 99.6583 127.384 92.661 121.24C85.6637 115.096 81.9517 110.829 81.525 108.44C81.1837 106.221 81.013 92.056 81.013 65.944L96.885 69.528C96.4583 98.8827 96.6717 114.456 97.525 116.248C99.2317 118.637 101.792 119.405 105.205 118.552C108.704 117.699 112.544 115.267 116.725 111.256C120.992 107.245 124.149 102.851 126.197 98.072V65.944ZM174.314 39.704V88.472L198.506 65.688L213.226 69.272L189.802 91.288L216.81 124.952L207.85 130.84L182.89 97.816L174.314 105.88V130.712L158.314 127.128V36.12L174.314 39.704ZM236.193 82.072L229.281 70.424C235.254 68.888 241.868 67.4373 249.121 66.072C256.46 64.7067 261.068 64.0667 262.945 64.152C264.822 64.2373 268.577 67.0533 274.209 72.6C279.841 78.0613 283.638 82.2427 285.601 85.144C286.284 86.168 286.625 89.624 286.625 95.512C286.625 101.315 286.497 107.971 286.241 115.48C286.07 122.989 286.028 128.067 286.113 130.712L270.241 127L270.369 120.472C263.457 127.384 257.825 130.84 253.473 130.84C249.377 130.755 244.172 126.872 237.857 119.192C231.542 111.512 228.385 106.008 228.385 102.68C228.385 100.035 230.177 97.6027 233.761 95.384C237.345 93.1653 241.697 91.4587 246.817 90.264C252.022 88.984 256.63 88.0027 260.641 87.32C264.652 86.6373 268.065 86.168 270.881 85.912L271.009 82.456C271.094 78.36 268.918 76.1413 264.481 75.8C260.385 75.544 251.766 77.3787 238.625 81.304H238.497L238.369 81.432H238.241H238.113L237.985 81.56H237.857H237.729L237.601 81.688H237.473H237.345L237.217 81.816H237.089H236.961H236.833L236.705 81.944H236.577H236.449L236.321 82.072H236.193ZM242.593 114.2C243.361 115.395 244.812 116.163 246.945 116.504C249.078 116.845 252.278 116.291 256.545 114.84C260.897 113.304 265.59 110.659 270.625 106.904L270.753 95.64C248.225 102.211 238.838 108.397 242.593 114.2ZM318.454 69.4V74.648C326.049 67.5653 332.705 64.1947 338.422 64.536C341.153 64.7067 345.931 68.12 352.758 74.776C359.67 81.3467 363.339 85.8267 363.766 88.216C364.107 90.4347 364.278 104.6 364.278 130.712L348.406 127.128C348.918 97.8587 348.705 82.3707 347.766 80.664C346.23 77.7627 343.67 76.9093 340.086 78.104C336.587 79.2133 332.918 81.2613 329.078 84.248C325.323 87.2347 321.782 90.7333 318.454 94.744V130.712L301.814 127.128V65.816L318.454 69.4ZM421.197 65.944L437.197 69.528V130.84L421.197 127.256V120.856C414.37 127.853 408.056 131.139 402.253 130.712C399.522 130.541 394.658 127.384 387.661 121.24C380.664 115.096 376.952 110.829 376.525 108.44C376.184 106.221 376.013 92.056 376.013 65.944L391.885 69.528C391.458 98.8827 391.672 114.456 392.525 116.248C394.232 118.637 396.792 119.405 400.205 118.552C403.704 117.699 407.544 115.267 411.725 111.256C415.992 107.245 419.149 102.851 421.197 98.072V65.944ZM469.314 69.4V72.856C475.373 66.968 480.962 64.1947 486.082 64.536C487.703 64.6213 490.349 66.1573 494.018 69.144C497.687 72.0453 501.186 75.288 504.514 78.872C512.535 68.888 519.959 64.1093 526.786 64.536C529.517 64.7067 534.295 68.12 541.122 74.776C548.034 81.3467 551.703 85.8267 552.13 88.216C552.471 90.4347 552.642 104.6 552.642 130.712L536.77 127.128C537.282 97.7733 537.069 82.2427 536.13 80.536C535.106 78.6587 533.613 77.6773 531.65 77.592C529.773 77.5067 527.682 78.1467 525.378 79.512C523.159 80.8773 520.898 82.6267 518.594 84.76C516.29 86.808 513.986 89.1547 511.682 91.8C511.853 96.4933 511.938 109.464 511.938 130.712L496.066 127.128C496.578 97.7733 496.365 82.2427 495.426 80.536C494.146 78.6587 492.525 77.6773 490.562 77.592C488.685 77.5067 486.466 78.3173 483.906 80.024C481.346 81.6453 478.829 83.6507 476.354 86.04C473.965 88.344 471.618 90.9467 469.314 93.848V130.712L453.314 127.128V65.816L469.314 69.4Z" fill="black"/>
<path d="M45.12 203.616L37.824 194.464C35.5627 196.043 32.9387 196.981 29.952 197.28C27.52 197.493 25.0667 196.576 22.592 194.528C20.7573 193.035 19.3707 191.904 18.432 191.136C17.4933 190.325 16.3627 189.259 15.04 187.936C13.76 186.571 12.6933 185.269 11.84 184.032C10.9867 182.837 10.6453 181.301 10.816 179.424C11.0293 177.504 11.4773 175.627 12.16 173.792C12.8427 171.957 13.7813 170.357 14.976 168.992C16.1707 167.627 17.3653 166.88 18.56 166.752L30.336 166.048V162.528H7.488V156.384H47.04V162.528H37.44V171.616H25.216C23.936 171.616 22.7627 172.256 21.696 173.536C20.672 174.816 19.9893 176.373 19.648 178.208C19.3067 180.043 19.2213 181.899 19.392 183.776C19.6053 185.653 20.3093 187.275 21.504 188.64C22.6987 190.005 24.2987 190.773 26.304 190.944C28.864 191.157 31.2107 190.432 33.344 188.768C31.552 186.421 30.7627 185.013 30.976 184.544C31.7867 182.923 33.28 181.451 35.456 180.128C36.1813 179.659 36.8853 179.403 37.568 179.36C38.2507 179.275 38.8907 179.381 39.488 179.68C40.0853 179.979 40.64 180.341 41.152 180.768C41.664 181.195 42.1973 181.749 42.752 182.432C43.7333 183.584 44.3307 184.757 44.544 185.952C44.8 187.104 44.5013 188.235 43.648 189.344L40.256 192.736L47.616 201.888L45.12 203.616ZM42.126 202.104C43.4487 202.147 45.262 203.085 47.566 204.92C49.87 206.797 51.8753 208.717 53.582 210.68C56.014 213.709 56.3553 216.504 54.606 219.064C52.8567 221.667 49.9127 223.309 45.774 223.992C43.6407 224.333 41.5927 224.248 39.63 223.736C37.6673 223.224 35.7687 222.285 33.934 220.92C32.0567 219.597 30.414 218.253 29.006 216.888C27.598 215.523 25.9767 213.773 24.142 211.64L26.19 209.976C29.2193 213.432 32.398 215.864 35.726 217.272C39.054 218.723 41.9127 219.085 44.302 218.36C46.6913 217.677 48.2913 216.163 49.102 213.816C49.7847 211.939 49.294 210.253 47.63 208.76C45.9233 207.309 44.238 207.117 42.574 208.184L37.07 211.448L31.822 206.84C36.814 203.64 40.2487 202.061 42.126 202.104ZM45.272 162.528V156.384H102.104V162.528H79V169.696C81.4747 167.52 84.504 166.496 88.088 166.624C89.2827 166.667 91.1813 168.053 93.784 170.784C96.4293 173.515 98.4347 175.883 99.8 177.888C101.251 180.107 100.781 182.731 98.392 185.76C96.0453 188.747 93.0587 190.859 89.432 192.096L83.416 186.592C88.024 184.971 91.032 183.136 92.44 181.088C93.4213 179.68 93.9333 178.357 93.976 177.12C94.0613 175.883 93.7413 174.965 93.016 174.368C92.3333 173.728 91.3947 173.323 90.2 173.152C89.0053 172.981 87.64 173.259 86.104 173.984C82.4773 175.648 80.1093 178.187 79 181.6V199.584L71 196V187.04C68.44 190.027 65.8373 191.52 63.192 191.52C58.1147 191.52 53.464 187.424 49.24 179.232C48.344 177.525 48.8773 175.477 50.84 173.088C52.8453 170.699 55.256 168.821 58.072 167.456C60.888 166.091 62.9147 165.813 64.152 166.624C66.2853 168.203 68.568 169.76 71 171.296V162.528H45.272ZM55.448 183.2C55.9173 183.755 56.6427 184.203 57.624 184.544C58.6053 184.885 59.8 185.077 61.208 185.12C62.616 185.12 64.1947 184.587 65.944 183.52C67.736 182.453 69.4213 180.853 71 178.72V174.688C67.7573 173.067 64.8133 172.704 62.168 173.6C59.5227 174.496 57.4533 176.032 55.96 178.208C54.5093 180.384 54.3387 182.048 55.448 183.2ZM101.43 162.528V156.384H119.158V162.528H114.23V199.584L106.294 196V162.528H101.43ZM148.762 195.936V176.224L138.778 176.096C140.698 179.253 141.231 181.899 140.378 184.032C139.567 186.123 138.138 187.68 136.09 188.704C134.042 189.685 132.506 189.749 131.482 188.896C126.319 184.501 123.631 182.197 123.418 181.984C121.54 180.192 120.794 177.931 121.178 175.2C121.562 172.469 122.842 170.763 125.018 170.08C125.188 170.037 133.103 170.037 148.762 170.08V162.528H115.737V156.384H161.626V162.528H156.698V199.52L148.762 195.936ZM133.978 176.032C129.796 175.989 127.45 176.907 126.938 178.784C126.596 180.064 127.108 181.28 128.474 182.432C129.967 183.669 131.396 183.883 132.762 183.072C134.383 182.133 135.172 179.787 135.13 176.032H133.978ZM160.177 162.528V156.384H205.617V162.528H200.817V199.584L192.881 196V184.992H179.633C179.633 187.168 179.334 189.003 178.737 190.496C178.182 191.989 177.478 193.056 176.625 193.696C175.814 194.293 174.918 194.699 173.937 194.912C172.956 195.083 172.102 195.104 171.377 194.976C170.652 194.848 170.076 194.635 169.649 194.336C166.876 192.459 164.614 190.475 162.865 188.384C162.438 187.872 162.161 187.211 162.033 186.4C161.905 185.589 161.969 184.715 162.225 183.776C162.481 182.837 162.929 181.963 163.569 181.152C164.252 180.299 165.297 179.637 166.705 179.168C168.113 178.656 169.777 178.443 171.697 178.528V162.528H160.177ZM179.633 178.72L192.881 178.656V162.528H179.633V178.72ZM171.633 184.736C170.31 184.565 169.244 184.715 168.433 185.184C167.622 185.653 167.196 186.208 167.153 186.848C167.153 187.488 167.324 188.085 167.665 188.64C168.049 188.939 168.54 189.152 169.137 189.28C169.734 189.365 170.289 189.003 170.801 188.192C171.356 187.381 171.633 186.229 171.633 184.736ZM187.538 202.272C187.666 201.845 188.349 201.227 189.586 200.416C190.781 199.648 191.613 199.2 192.082 199.072C192.424 198.987 195.026 200.629 199.89 204C204.754 207.413 207.315 209.291 207.571 209.632C207.528 209.76 207.165 210.037 206.483 210.464C205.843 210.891 205.416 211.147 205.203 211.232C205.075 211.147 203.538 210.379 200.594 208.928C197.65 207.477 194.792 206.048 192.018 204.64C189.245 203.275 187.752 202.485 187.538 202.272Z" fill="black"/>
</svg>
